<mxfile host="app.diagrams.net" agent="Mozilla/5.0 (Windows NT 10.0; Win64; x64; rv:136.0) Gecko/20100101 Firefox/136.0" version="26.1.1">
  <diagram name="Page-1" id="GBmrLc-1x3tqJlqyjX2T">
    <mxGraphModel dx="1050" dy="558" grid="1" gridSize="10" guides="1" tooltips="1" connect="1" arrows="1" fold="1" page="1" pageScale="1" pageWidth="827" pageHeight="1169" math="0" shadow="0">
      <root>
        <mxCell id="0" />
        <mxCell id="1" parent="0" />
        <mxCell id="8ULpbYVx25zUqjwGH4Wz-1" value="" style="rounded=0;whiteSpace=wrap;html=1;" parent="1" vertex="1">
          <mxGeometry x="190" y="40" width="490" height="560" as="geometry" />
        </mxCell>
        <mxCell id="8ULpbYVx25zUqjwGH4Wz-2" value="&lt;div&gt;dispatch subsystem&lt;/div&gt;" style="text;html=1;align=center;verticalAlign=middle;whiteSpace=wrap;rounded=0;" parent="1" vertex="1">
          <mxGeometry x="384" y="50" width="60" height="30" as="geometry" />
        </mxCell>
        <mxCell id="8ULpbYVx25zUqjwGH4Wz-5" style="edgeStyle=orthogonalEdgeStyle;rounded=0;orthogonalLoop=1;jettySize=auto;html=1;entryX=0;entryY=0.5;entryDx=0;entryDy=0;endArrow=none;startFill=0;" parent="1" source="8ULpbYVx25zUqjwGH4Wz-3" target="8ULpbYVx25zUqjwGH4Wz-4" edge="1">
          <mxGeometry relative="1" as="geometry" />
        </mxCell>
        <mxCell id="8ULpbYVx25zUqjwGH4Wz-3" value="&lt;div&gt;response&lt;/div&gt;&lt;div&gt;team&lt;/div&gt;" style="shape=umlActor;verticalLabelPosition=bottom;verticalAlign=top;html=1;outlineConnect=0;" parent="1" vertex="1">
          <mxGeometry x="80" y="110" width="30" height="60" as="geometry" />
        </mxCell>
        <mxCell id="8ULpbYVx25zUqjwGH4Wz-4" value="recieve report data" style="ellipse;whiteSpace=wrap;html=1;" parent="1" vertex="1">
          <mxGeometry x="345" y="105" width="140" height="70" as="geometry" />
        </mxCell>
        <mxCell id="8ULpbYVx25zUqjwGH4Wz-7" value="" style="edgeStyle=orthogonalEdgeStyle;rounded=0;orthogonalLoop=1;jettySize=auto;html=1;endArrow=open;endFill=0;dashed=1;" parent="1" source="8ULpbYVx25zUqjwGH4Wz-6" target="8ULpbYVx25zUqjwGH4Wz-4" edge="1">
          <mxGeometry relative="1" as="geometry" />
        </mxCell>
        <mxCell id="8ULpbYVx25zUqjwGH4Wz-8" value="&amp;lt;&amp;lt;include&amp;gt;&amp;gt;" style="edgeLabel;html=1;align=center;verticalAlign=middle;resizable=0;points=[];" parent="8ULpbYVx25zUqjwGH4Wz-7" vertex="1" connectable="0">
          <mxGeometry x="0.2444" y="-1" relative="1" as="geometry">
            <mxPoint as="offset" />
          </mxGeometry>
        </mxCell>
        <mxCell id="8ULpbYVx25zUqjwGH4Wz-6" value="determine route" style="ellipse;whiteSpace=wrap;html=1;" parent="1" vertex="1">
          <mxGeometry x="345" y="210" width="140" height="70" as="geometry" />
        </mxCell>
        <mxCell id="8ULpbYVx25zUqjwGH4Wz-10" value="" style="edgeStyle=orthogonalEdgeStyle;rounded=0;orthogonalLoop=1;jettySize=auto;html=1;endArrow=open;endFill=0;dashed=1;" parent="1" source="8ULpbYVx25zUqjwGH4Wz-9" target="8ULpbYVx25zUqjwGH4Wz-6" edge="1">
          <mxGeometry relative="1" as="geometry" />
        </mxCell>
        <mxCell id="8ULpbYVx25zUqjwGH4Wz-15" value="&amp;lt;&amp;lt;include&amp;gt;&amp;gt;" style="edgeLabel;html=1;align=center;verticalAlign=middle;resizable=0;points=[];" parent="8ULpbYVx25zUqjwGH4Wz-10" vertex="1" connectable="0">
          <mxGeometry x="0.36" y="-1" relative="1" as="geometry">
            <mxPoint as="offset" />
          </mxGeometry>
        </mxCell>
        <mxCell id="8ULpbYVx25zUqjwGH4Wz-9" value="calculate estimated time of arrival" style="ellipse;whiteSpace=wrap;html=1;" parent="1" vertex="1">
          <mxGeometry x="345" y="310" width="140" height="70" as="geometry" />
        </mxCell>
        <mxCell id="8ULpbYVx25zUqjwGH4Wz-12" value="" style="edgeStyle=orthogonalEdgeStyle;rounded=0;orthogonalLoop=1;jettySize=auto;html=1;endArrow=open;endFill=0;dashed=1;" parent="1" source="8ULpbYVx25zUqjwGH4Wz-11" target="8ULpbYVx25zUqjwGH4Wz-9" edge="1">
          <mxGeometry relative="1" as="geometry" />
        </mxCell>
        <mxCell id="8ULpbYVx25zUqjwGH4Wz-16" value="&amp;lt;&amp;lt;extend&amp;gt;&amp;gt;" style="edgeLabel;html=1;align=center;verticalAlign=middle;resizable=0;points=[];" parent="8ULpbYVx25zUqjwGH4Wz-12" vertex="1" connectable="0">
          <mxGeometry x="0.28" relative="1" as="geometry">
            <mxPoint as="offset" />
          </mxGeometry>
        </mxCell>
        <mxCell id="8ULpbYVx25zUqjwGH4Wz-11" value="share route and eta to user and emergency response" style="ellipse;whiteSpace=wrap;html=1;" parent="1" vertex="1">
          <mxGeometry x="345" y="410" width="140" height="70" as="geometry" />
        </mxCell>
        <mxCell id="-sXJFcPDvY-b5h992X2T-3" value="" style="edgeStyle=orthogonalEdgeStyle;rounded=0;orthogonalLoop=1;jettySize=auto;html=1;endArrow=open;endFill=0;dashed=1;entryX=1;entryY=0.5;entryDx=0;entryDy=0;exitX=0.5;exitY=0;exitDx=0;exitDy=0;" edge="1" parent="1" source="-sXJFcPDvY-b5h992X2T-2" target="8ULpbYVx25zUqjwGH4Wz-9">
          <mxGeometry relative="1" as="geometry" />
        </mxCell>
        <mxCell id="-sXJFcPDvY-b5h992X2T-4" value="&amp;lt;&amp;lt;extend&amp;gt;&amp;gt;" style="edgeLabel;html=1;align=center;verticalAlign=middle;resizable=0;points=[];" vertex="1" connectable="0" parent="-sXJFcPDvY-b5h992X2T-3">
          <mxGeometry x="0.28" relative="1" as="geometry">
            <mxPoint as="offset" />
          </mxGeometry>
        </mxCell>
        <mxCell id="-sXJFcPDvY-b5h992X2T-2" value="provide updates" style="ellipse;whiteSpace=wrap;html=1;" vertex="1" parent="1">
          <mxGeometry x="530" y="470" width="140" height="70" as="geometry" />
        </mxCell>
      </root>
    </mxGraphModel>
  </diagram>
</mxfile>
